<svg id="Layer_1" data-name="Layer 1" xmlns="http://www.w3.org/2000/svg" viewBox="0 0 1920 1080"><defs><style>.cls-1{fill:#03c;}.cls-2{fill:#111;}</style></defs><title>CB_logos_Artboard 1 copy 3</title><polygon class="cls-1" points="430.69 565.84 430.68 565.84 417.08 565.84 417.08 565.84 423.76 551.9 435.18 528.11 441.86 514.16 455.46 514.16 448.78 528.11 496.38 528.11 514.47 490.36 496.34 490.36 496.34 490.36 410.21 490.36 410.21 490.36 405.67 490.36 358.07 589.64 376.2 589.64 376.2 589.64 462.34 589.64 462.34 589.64 466.88 589.64 484.97 551.9 437.37 551.9 430.69 565.84"/><polygon class="cls-2" points="1146.11 490.36 1109.92 565.84 1096.32 565.84 1132.51 490.36 1084.91 490.36 1037.31 589.64 1055.44 589.64 1084.91 589.64 1098.51 589.64 1141.58 589.64 1146.11 589.64 1193.71 490.36 1146.11 490.36"/><polygon class="cls-2" points="1391.94 490.36 1378.34 490.36 1339.58 490.36 1330.73 490.36 1319.33 514.16 1339.58 514.16 1366.92 514.16 1380.53 514.16 1374.82 526.06 1361.22 526.06 1313.62 526.06 1283.13 589.64 1301.27 589.64 1330.73 589.64 1344.34 589.64 1387.4 589.64 1391.94 589.64 1403.35 565.84 1387.4 565.84 1355.75 565.84 1342.14 565.84 1347.85 553.95 1361.45 553.95 1409.05 553.95 1439.54 490.36 1425.71 490.36 1391.94 490.36"/><polygon class="cls-1" points="891.52 506.99 851.89 589.64 899.49 589.64 926.78 531.65 891.52 506.99"/><path class="cls-1" d="M743.47,490.36H652.8l-11.41,23.8h61.22l-6.68,13.94H634.71l-11.37,23.72L605.2,589.64h61.24l-6.68,13.94h47.59L761.6,490.36Zm-59,61.54-6.68,13.94H664.21l6.69-13.94Z"/><path class="cls-1" d="M638,490.36H576.74L587,469h-.17A31.94,31.94,0,0,1,554.88,437v-.09h-.15L481.57,589.64h47.6l36.17-75.48H579l-36.19,75.48h47.6L635.74,495Z"/><path class="cls-2" d="M1056.55,490.36h-47.41L1019.4,469h-.17a32,32,0,0,1-32-31.94v-.09h-.15L914,589.64h108.81l47.6-99.28ZM973,565.84h0l24.76-51.68h13.63l-24.78,51.68Z"/><path class="cls-2" d="M1304.76,514.16l11.4-23.8H1207.35l-47.6,99.28H1221l-10.33,21.58a32.89,32.89,0,0,0-3.31-.17,31.94,31.94,0,0,0-31.94,32h20l0,.07H1243l56.06-117Zm-61.22,0h13.61l-24.75,51.68h-13.64Z"/><polygon class="cls-2" points="1514.33 490.36 1478.17 565.84 1464.54 565.84 1500.73 490.36 1453.13 490.36 1405.52 589.64 1419.35 589.64 1453.13 589.64 1466.77 589.64 1441.17 643.08 1488.77 643.08 1561.93 490.36 1514.33 490.36"/><path class="cls-1" d="M834.09,469a31.94,31.94,0,0,1-32-31.94v-.09H802L728.83,589.64h47.6L834.25,469Z"/><path class="cls-1" d="M895.9,469A31.9,31.9,0,0,1,864,437v-.09h-.15L850.16,465.4,790.65,589.64h47.6L896.07,469Z"/><path class="cls-1" d="M901.5,487.9a21.63,21.63,0,0,0,43.26,0c0-.43,0-.87,0-1.3a21.62,21.62,0,0,0-43.17,0C901.52,487,901.5,487.47,901.5,487.9Z"/></svg>